<svg width="340" height="180" viewBox="0 0 340 180" fill="none" xmlns="http://www.w3.org/2000/svg">
  <rect width="340" height="180" fill="none"/>
  <ellipse cx="170" cy="158" rx="110" ry="16" fill="#2D1A82" opacity="0.45"/>
  <rect x="52" y="84" width="118" height="66" rx="12" fill="#D8CBFF" stroke="#9B88E0" stroke-width="3"/>
  <rect x="64" y="96" width="70" height="10" rx="5" fill="#BFAEFF"/>
  <rect x="64" y="112" width="92" height="8" rx="4" fill="#BFAEFF"/>
  <rect x="64" y="125" width="58" height="8" rx="4" fill="#BFAEFF"/>
  <circle cx="232" cy="94" r="52" fill="#F6F3FF" stroke="#A391E1" stroke-width="8"/>
  <path d="M206 118C213 109 222 104 232 104C242 104 251 109 258 118" stroke="#9F8DE1" stroke-width="5" stroke-linecap="round"/>
  <circle cx="221" cy="92" r="5" fill="#8C79D8"/>
  <circle cx="243" cy="92" r="5" fill="#8C79D8"/>
  <rect x="216" y="52" width="32" height="14" rx="7" fill="#E8E0FF"/>
  <path d="M250 48L258 40L266 48" stroke="#C8B7FF" stroke-width="4" stroke-linecap="round" stroke-linejoin="round"/>
</svg>
